<?xml version="1.0" standalone="no"?>
<!DOCTYPE svg PUBLIC "-//W3C//DTD SVG 20010904//EN"
 "http://www.w3.org/TR/2001/REC-SVG-20010904/DTD/svg10.dtd">
<svg version="1.0" xmlns="http://www.w3.org/2000/svg"
 width="700.000000pt" height="700.000000pt" viewBox="0 0 700.000000 700.000000"
 preserveAspectRatio="xMidYMid meet">
<metadata>
Created by potrace 1.11, written by Peter Selinger 2001-2013
</metadata>
<g transform="translate(0.000000,700.000000) scale(0.100000,-0.100000)"
fill="#000000" stroke="none">
<path d="M3270 6250 c-106 -20 -245 -64 -335 -107 -195 -93 -390 -259 -513
-437 -34 -49 -62 -94 -62 -99 0 -6 -6 -18 -13 -26 -36 -43 -107 -233 -131
-354 -24 -121 -26 -157 -27 -436 l-1 -269 -380 0 c-350 -1 -382 -2 -416 -19
-54 -28 -79 -86 -87 -198 -3 -49 -8 -110 -10 -135 -2 -25 -7 -81 -10 -125 -4
-44 -8 -96 -10 -115 -2 -19 -6 -71 -9 -115 -4 -44 -9 -100 -11 -125 -3 -25 -7
-79 -10 -120 -3 -41 -8 -91 -10 -110 -2 -19 -7 -73 -10 -120 -3 -47 -8 -105
-10 -130 -2 -25 -7 -79 -10 -120 -4 -41 -8 -91 -10 -110 -2 -19 -6 -75 -10
-125 -3 -49 -8 -106 -10 -125 -2 -19 -7 -73 -10 -120 -3 -47 -8 -98 -10 -115
-2 -16 -7 -68 -10 -115 -3 -47 -8 -105 -10 -130 -2 -25 -7 -79 -10 -121 -3
-42 -7 -94 -10 -116 -2 -22 -6 -74 -10 -114 -9 -119 -14 -190 -20 -249 -8 -91
-20 -233 -30 -360 -7 -86 -12 -142 -22 -255 -14 -153 -10 -207 16 -244 47 -66
-141 -61 2451 -61 1990 0 2366 2 2394 14 51 21 79 69 80 135 1 56 -11 235 -18
281 -3 14 -7 68 -11 120 -3 52 -8 113 -10 135 -2 22 -7 72 -10 110 -2 39 -7
93 -10 120 -3 28 -7 79 -10 115 -6 82 -15 191 -21 250 -2 25 -6 83 -9 130 -3
47 -8 101 -10 120 -4 36 -10 105 -20 225 -3 39 -7 95 -10 125 -8 96 -14 163
-20 245 -4 44 -8 97 -10 119 -3 21 -7 75 -10 120 -3 44 -7 101 -10 126 -6 56
-15 157 -20 230 -5 58 -13 153 -20 235 -2 28 -7 88 -10 135 -4 47 -8 101 -10
120 -2 19 -7 71 -10 115 -4 44 -8 96 -10 115 -2 19 -7 80 -10 135 -8 118 -30
168 -87 197 -35 18 -65 20 -415 21 l-378 2 -2 240 c-1 277 -6 352 -28 461 -92
442 -415 814 -840 967 -158 56 -231 69 -430 72 -109 2 -176 -2 -245 -15z m450
-295 c368 -85 652 -351 759 -710 33 -113 34 -117 38 -427 l5 -296 -1021 0
-1021 0 -1 122 c-1 346 3 433 22 521 69 316 269 573 553 710 96 46 207 81 291
91 28 4 52 8 54 10 10 9 257 -7 321 -21z m-1531 -1957 c0 -139 4 -243 10 -258
49 -118 207 -124 266 -10 12 24 14 67 15 408 l0 92 1020 0 1020 0 0 -229 c0
-138 4 -241 11 -258 33 -89 138 -122 216 -70 61 40 65 63 65 323 l0 234 299 0
299 0 1 -32 c0 -18 2 -44 4 -58 1 -14 6 -70 10 -125 3 -55 8 -111 10 -125 2
-14 7 -63 10 -110 3 -47 8 -98 10 -115 2 -16 6 -73 10 -125 4 -52 8 -111 10
-130 2 -19 6 -69 10 -110 3 -41 8 -95 10 -120 2 -25 7 -79 10 -120 3 -41 8
-95 10 -120 2 -25 7 -79 10 -120 3 -41 8 -95 10 -120 3 -25 7 -81 10 -125 3
-44 8 -96 10 -115 2 -19 7 -73 10 -120 3 -47 8 -101 10 -120 2 -19 7 -73 10
-120 3 -47 8 -101 10 -120 2 -19 7 -73 10 -120 4 -47 8 -101 10 -120 2 -19 6
-73 10 -120 3 -47 8 -101 10 -120 2 -19 7 -77 10 -129 4 -52 8 -102 10 -111 2
-9 6 -67 10 -128 l7 -111 -2172 0 -2172 -1 6 103 c4 56 9 118 11 137 2 19 6
71 10 115 4 44 8 98 10 120 2 22 6 76 10 120 3 44 8 100 10 125 3 25 7 77 10
115 3 39 10 124 15 190 6 66 13 145 15 175 3 30 7 83 10 117 9 99 13 153 20
243 3 47 8 101 10 120 2 19 7 73 10 120 4 47 8 101 10 120 2 19 6 73 10 120 3
47 8 101 10 120 2 19 7 73 10 120 4 47 8 101 10 120 2 19 6 76 10 125 4 50 8
101 10 115 2 14 7 66 10 115 4 50 8 106 10 125 2 19 6 76 10 125 4 50 9 99 10
110 1 11 3 37 4 58 l1 37 299 0 300 0 0 -232z"/>
</g>
</svg>
